<svg width="100" height="100" xmlns="http://www.w3.org/2000/svg">
  <defs>
    <pattern id="doodles" width="100" height="100" patternUnits="userSpaceOnUse">
      <!-- Chat bubble-like shapes -->
      <path d="M80,70 Q85,65 80,60 L75,60 Q70,60 70,65 L70,70 Q70,75 75,75 L80,75 Q85,75 85,70" 
            fill="none" stroke="rgba(255,255,255,0.03)" stroke-width="2"/>
      <!-- Decorative curves -->
      <path d="M20,20 C25,15 30,25 35,20" fill="none" stroke="rgba(255,255,255,0.03)" stroke-width="2"/>
      <path d="M60,30 S65,20 70,30" fill="none" stroke="rgba(255,255,255,0.03)" stroke-width="2"/>
      <path d="M40,40 Q45,35 50,40 T60,40" fill="none" stroke="rgba(255,255,255,0.03)" stroke-width="2"/>
      <path d="M15,85 Q25,75 35,85" fill="none" stroke="rgba(255,255,255,0.03)" stroke-width="2"/>
      <!-- Dots -->
      <circle cx="25" cy="75" r="2" fill="rgba(255,255,255,0.03)"/>
      <circle cx="75" cy="25" r="2" fill="rgba(255,255,255,0.03)"/>
    </pattern>
  </defs>
  <rect width="100%" height="100%" fill="url(#doodles)"/>
</svg> 